<svg width="459" height="454" viewBox="0 0 459 454" fill="none" xmlns="http://www.w3.org/2000/svg">
<path fill-rule="evenodd" clip-rule="evenodd" d="M375.591 171.663C372.96 171.189 368.96 170.547 364.895 169.954C333.813 165.423 301.767 176.086 281.316 197.765C272.148 207.483 268.489 213.429 256.172 238.617C240.461 270.746 228.928 286.823 210.487 302.301C188.026 321.153 161.71 335.016 125.259 347.196C98.6435 356.09 67.3705 363.224 13.0025 372.803C5.71148 374.087 -0.138495 375.458 0.00249603 375.848C0.321496 376.728 26.9035 395.186 43.9115 406.338C83.4485 432.259 124.342 446.612 174.759 452.261C194.386 454.46 231.232 453.705 251.259 450.694C332.111 438.537 398.124 401.193 434.307 347.145C445.717 330.1 452.557 314.215 456.466 295.678C458.655 285.299 458.906 261.01 456.911 252.678C453.294 237.572 448.238 225.692 440.716 214.614C437.4 209.729 429.636 201.151 424.042 195.966L424 196C402.713 179.169 395.15 177.041 375.591 171.663ZM341.146 210.616C328.731 212.584 317.418 218.621 309.945 227.267C307.203 230.439 301.501 240.676 293.844 256.178C281.04 282.093 272.465 296.002 260.488 310.276C231.719 344.564 186.35 371.394 126.3 389.63L110.341 394.476L114.3 396.14C120.684 398.824 139.455 404.302 150.254 406.634C189.552 415.119 233.014 414.393 273.501 404.575C307.637 396.298 342.248 379.736 366.813 359.924C377.078 351.645 392.121 335.758 398.581 326.375C413.271 305.036 419.952 280.57 416.426 261.027C414.128 248.29 409.965 240.65 399.87 230.644C386.865 217.754 372.577 211.376 354.259 210.282C349.859 210.02 343.958 210.17 341.146 210.616Z" fill="#ED6E6A"/>
<path d="M163.096 5.00808C163.304 4.79909 170.851 3.53115 179.867 2.18813C194.193 0.0540977 198.905 -0.206889 217.259 0.113058C235.585 0.433126 239.66 0.812154 249.259 3.08205C279.847 10.3172 302.032 21.9651 320.83 40.6601C335.077 54.8301 343.76 68.6121 349.805 86.6551C352.687 95.2581 355.703 112.162 355.741 119.928L355.759 123.678H314.759V119.243C314.759 112.804 312.16 101.45 308.921 93.7411C298.796 69.6441 276.906 52.2511 246.544 44.181C239.402 42.2831 221.759 39.4351 221.759 40.181C221.759 40.2481 223.126 44.3251 224.794 49.2401C237.209 85.806 240.432 121.037 233.757 147.209C231.089 157.668 223.151 173.646 216.837 181.268C200.663 200.789 176.303 210.337 149.582 207.626C135.58 206.206 122.405 201.655 109.562 193.803L105.866 191.543L103.34 199.86C92.7535 234.729 93.5325 267.449 105.779 302.345L108.645 310.512L90.9515 317.555C81.2215 321.429 72.6385 324.729 71.8785 324.888C69.0425 325.483 60.1125 296.117 57.3705 277.178C53.9075 253.261 54.4855 232.662 59.2825 208.97C64.1485 184.938 70.6005 167.97 88.4075 132.383L99.9875 109.239L110.047 129.209C118.499 145.985 120.999 150.064 125.684 154.717C145.727 174.631 179.219 170.771 190.818 147.21C202.729 123.018 196.316 82.2442 171.772 26.0991C166.792 14.7071 162.888 5.21608 163.096 5.00808Z" fill="#E3A23E"/>
<path d="M380.27 173.195C376.826 185.143 372.272 197.632 366 212.136C378.731 215.807 389.252 221.541 401.551 232.5C408.47 219.226 413.834 205.433 418.015 191.483C405.041 181.1 393.949 176.362 380.27 173.195Z" fill="#C32A79"/>
<path d="M380.27 173.195C393.949 176.362 405.041 181.1 418.015 191.483C428.636 156.038 431.616 119.573 433.051 88.0002C394.051 87.9998 391.551 88.0002 391.551 88.0002C391.551 88.0002 391.551 101 390.551 116C388.283 137.432 385.612 154.663 380.27 173.195Z" fill="#72E76A"/>
</svg>
