<svg
  aria-hidden="true"
  style="position: absolute; width: 0; height: 0; overflow: hidden;"
  version="1.1"
  xmlns="http://www.w3.org/2000/svg"
  xmlns:xlink="http://www.w3.org/1999/xlink"
>
<defs>
<symbol id="icon-arrow-back" viewBox="0 0 41 32">
<path
        fill="none"
        stroke="#fff"
        style="stroke: var(--color1, #fff)"
        stroke-linejoin="round"
        stroke-linecap="round"
        stroke-miterlimit="4"
        stroke-width="3.4286"
        d="M37.961 15.154h-34.779M18.398 2.263l-15.216 12.891 15.216 12.889"
      />
</symbol>
<symbol id="icon-arrow-btn" viewBox="0 0 65 32">
  <path
        fill="none"
        stroke="#fff"
        stroke-linejoin="round"
        stroke-linecap="round"
        stroke-miterlimit="4"
        stroke-width="1.0667"
        d="M24.229 16.075h16.608M33.57 9.92l7.265 6.155-7.265 6.155"
      />
  <path
        fill="none"
        stroke="#fff"
        stroke-linejoin="miter"
        stroke-linecap="butt"
        stroke-miterlimit="4"
        stroke-width="1.6"
        d="M16.35 1.572h32.367c8.009 0 14.502 6.493 14.502 14.502s-6.493 14.502-14.502 14.502h-32.367c-8.009 0-14.502-6.493-14.502-14.502s6.493-14.502 14.502-14.502z"
      />
</symbol>
<symbol id="icon-logo" viewBox="0 0 108 32">
<path
        fill="#ffa837"
        style="fill: var(--color2, #ffa837)"
        d="M10.723 0h2.555v7.172l5.047-5.071 1.807 1.816-5.046 5.071h7.137v2.568h-20.444v-2.568h7.138l-5.048-5.071 1.807-1.816 5.047 5.071v-7.172z"
      />
<path
        fill="#314172"
        style="fill: var(--color3, #314172)"
        d="M17.501 16.519c-1.991 0-3.47 0.796-4.466 2.418-0.882-1.621-2.276-2.418-4.181-2.418-1.849 0-3.271 0.768-4.238 2.276v-1.906h-2.475v14.222h2.475v-7.908c0-2.873 1.564-4.324 3.641-4.324 1.849 0 3.015 1.28 3.015 3.47v8.761h2.475v-7.908c0-2.93 1.365-4.324 3.499-4.324 1.906 0 3.129 1.28 3.129 3.47v8.761h2.475v-8.846c0-3.527-2.162-5.746-5.348-5.746zM39.933 25.138c0.057-0.37 0.085-0.74 0.085-1.109 0-2.076-0.654-3.84-1.991-5.291-1.308-1.479-3.015-2.219-5.092-2.219-2.19 0-3.982 0.711-5.376 2.133s-2.076 3.214-2.076 5.348c0 2.162 0.711 3.954 2.105 5.376 1.422 1.394 3.271 2.105 5.518 2.105 2.788 0 4.864-1.081 6.258-3.214l-2.105-1.195c-0.853 1.394-2.219 2.076-4.096 2.076-2.702 0-4.665-1.479-5.148-4.011h11.918zM32.936 18.852c2.276 0 4.153 1.422 4.58 4.124h-9.5c0.427-2.503 2.276-4.124 4.921-4.124zM49.946 16.519c-2.076 0-3.612 0.796-4.608 2.418v-2.048h-2.475v14.222h2.475v-7.538c0-3.186 1.65-4.693 4.124-4.693 2.19 0 3.527 1.337 3.527 3.641v8.59h2.475v-8.732c0-3.612-2.19-5.86-5.518-5.86zM70.695 19.335c-1.223-1.877-3.015-2.816-5.376-2.816-1.991 0-3.698 0.74-5.092 2.19s-2.105 3.214-2.105 5.291 0.711 3.868 2.105 5.319c1.394 1.451 3.1 2.162 5.092 2.162 2.361 0 4.153-0.939 5.376-2.816v2.446h2.475v-19.911h-2.475v8.135zM65.632 29.092c-1.422 0-2.617-0.484-3.584-1.451-0.967-0.996-1.451-2.19-1.451-3.641s0.484-2.645 1.451-3.612c0.967-0.996 2.162-1.479 3.584-1.479 1.451 0 2.645 0.484 3.612 1.479 0.967 0.967 1.451 2.162 1.451 3.612s-0.484 2.645-1.451 3.641c-0.967 0.967-2.162 1.451-3.612 1.451zM90.572 25.138c0.057-0.37 0.085-0.74 0.085-1.109 0-2.076-0.654-3.84-1.991-5.291-1.308-1.479-3.015-2.219-5.092-2.219-2.19 0-3.982 0.711-5.376 2.133s-2.076 3.214-2.076 5.348c0 2.162 0.711 3.954 2.105 5.376 1.422 1.394 3.271 2.105 5.518 2.105 2.788 0 4.864-1.081 6.258-3.214l-2.105-1.195c-0.853 1.394-2.219 2.076-4.096 2.076-2.702 0-4.665-1.479-5.148-4.011h11.918zM83.575 18.852c2.276 0 4.153 1.422 4.58 4.124h-9.5c0.427-2.503 2.276-4.124 4.921-4.124zM107.128 25.138c0.057-0.37 0.085-0.74 0.085-1.109 0-2.076-0.654-3.84-1.991-5.291-1.308-1.479-3.015-2.219-5.092-2.219-2.19 0-3.982 0.711-5.376 2.133s-2.076 3.214-2.076 5.348c0 2.162 0.711 3.954 2.105 5.376 1.422 1.394 3.271 2.105 5.518 2.105 2.788 0 4.864-1.081 6.258-3.214l-2.105-1.195c-0.853 1.394-2.219 2.076-4.096 2.076-2.702 0-4.665-1.479-5.148-4.011h11.918zM100.131 18.852c2.276 0 4.153 1.422 4.58 4.124h-9.5c0.427-2.503 2.276-4.124 4.921-4.124z"
      />
</symbol>
<symbol id="icon-mail-arrow" viewBox="0 0 34 32">
<path
        d="M6.2 27.2c-2.934-2.877-4.753-6.883-4.753-11.313 0-8.748 7.092-15.84 15.84-15.84 4.43 0 8.436 1.819 11.311 4.751l0.003 0.003c2.799 2.855 4.527 6.769 4.527 11.087 0 8.748-7.092 15.84-15.84 15.84-4.318 0-8.232-1.728-11.089-4.529l0.003 0.003zM10.541 15.010c-0.547 0-0.99 0.443-0.99 0.99s0.443 0.99 0.99 0.99h11.469l-3.875 3.875c-0.167 0.177-0.269 0.416-0.269 0.679 0 0.547 0.443 0.99 0.99 0.99 0.263 0 0.502-0.102 0.679-0.27l-0 0 5.566-5.566c0.179-0.179 0.289-0.426 0.289-0.699s-0.11-0.52-0.289-0.699l-5.566-5.566c-0.181-0.192-0.437-0.312-0.721-0.312-0.547 0-0.99 0.443-0.99 0.99 0 0.284 0.12 0.54 0.311 0.721l0 0 3.875 3.875h-11.469z"
      />
</symbol>
<symbol id="icon-menu-icon" viewBox="0 0 32 32">
<path
        stroke-linejoin="miter"
        stroke-linecap="square"
        stroke-miterlimit="4"
        stroke-width="3.6923"
        d="M16.615 1.846v28.308M1.846 15.385h28.308"
      />
</symbol>
<symbol id="icon-plus" viewBox="0 0 32 32">
<path
        d="M32 14.945h-14.945v-14.945h-2.11v14.945h-14.945v2.11h14.945v14.945h2.11v-14.945h14.945z"
      />
</symbol>
</defs>
</svg>
